<svg height="120" viewBox="0 0 312 120" width="312" xmlns="http://www.w3.org/2000/svg"><g fill="none" fill-rule="evenodd" transform="translate(-344)"><path d="m344 0h312v120h-312z"/><path d="m479 32v-3c0-.5522847.447715-1 1-1h16.5c.552285 0 1 .4477153 1 1v3c0 .5522847-.447715 1-1 1h-6.844353c-.398127 0-.758327.2361639-.91707.6012739l-4.434506 10.199363c-.110105.2532419.00593.547793.259172.6578981.062906.0273507.130768.041465.199363.041465h11.737394c.552285 0 1 .4477153 1 1v22.5c0 .5522847-.447715 1-1 1h-16.5c-.552285 0-1-.4477153-1-1v-23.2920128c0-.1371902.028229-.272913.08293-.3987261l4.612999-10.609898c.110105-.2532419-.00593-.547793-.259172-.6578981-.062906-.0273507-.130768-.041465-.199363-.041465h-3.237394c-.552285 0-1-.4477153-1-1zm13 17.5h-7.5c-.276142 0-.5.2238576-.5.5v13.5c0 .2761424.223858.5.5.5h7.5c.276142 0 .5-.2238576.5-.5v-13.5c0-.2761424-.223858-.5-.5-.5zm29-4v22.5c0 .5522847-.447715 1-1 1h-10.5c-.552285 0-1-.4477153-1-1v-3c0-.5522847.447715-1 1-1h6c.276142 0 .5-.2238576.5-.5v-13.5c0-.2761424-.223858-.5-.5-.5h-15c-.552285 0-1-.4477153-1-1v-19.5c0-.5522847.447715-1 1-1h17c.552285 0 1 .4477153 1 1v11.5c0 .5522847-.447715 1-1 1h-3c-.552285 0-1-.4477153-1-1v-7c0-.2761424-.223858-.5-.5-.5h-8c-.276142 0-.5.2238576-.5.5v10.5c0 .2761424.223858.5.5.5h15c.552285 0 1 .4477153 1 1zm-21.5 13v-3c0-.5522847.447715-1 1-1h11.5c.552285 0 1 .4477153 1 1v3c0 .5522847-.447715 1-1 1h-11.5c-.552285 0-1-.4477153-1-1zm32.5-25.5c-.552285 0-1-.4477153-1-1v-3c0-.5522847.447715-1 1-1h32c.552285 0 1 .4477153 1 1v3c0 .5522847-.447715 1-1 1zm27.519058 18c5.274689 0 9.480942 3.3391562 9.480942 8.55 0 5.85-4.082319 9.45-9.5 9.45 0 0 0-4.5 0-5 2.257367 0 4.082319-1.7472506 4.082319-4.45 0-5.3415204-9.177188-6.9624675-13.082319 1.0384942.5999-7.6836533 5.525002-9.5884942 9.019058-9.5884942zm-29.519058-10h36c.552285 0 1 .4477153 1 1v3c0 .5522847-.447715 1-1 1h-24.297908c-.421324 0-.797453.264077-.940554.6603555l-6.019658 16.6698223c-.09379.2597268.040728.5463089.300455.6400991.054459.0196659.111921.0297231.169822.0297231h24.287843v5h-29.5c-.552285 0-1-.4477153-1-1v-3.8249755c0-.1158028.020114-.2307257.059446-.3396445l6.198674-17.1655578c.09379-.2597268-.040728-.5463089-.300455-.6400991-.054459-.0196659-.111921-.0297231-.169822-.0297231h-4.787843c-.552285 0-1-.4477153-1-1v-3c0-.5522847.447715-1 1-1z" fill="#2d3131"/><path d="m465 44.0012401-23 .0005238c-1.104365 0-1.999711.8951113-2 1.9994762l-.002373 4.9999999c-.00029 1.1045695.894906 2.0002344 1.999476 2.0005237h.00054l14.002357-.0006736c1.104569-.0000092 2.000007.8954138 2.000017 1.9999833v.0000167l-.000017.5v.50015c0 3.3137085-2.686292 6-6 6l-19.001489-.0000552c-1.10441 0-1.999721-.8952858-1.999751-1.9996967l-.000745-19.0002481c-.000091-3.3137085 2.686126-6.0000741 5.999835-6.0001654h.000165l27.996403-.0010755c1.104085 0 1.999315-.8946746 2-1.9987595l.005582-4.9999993c.000685-1.1045692-.89419-2.0005549-1.99876-2.00124-.000413-.0000003-.000827-.0000004-.00124-.0000004l-28 .0013228c-8.284239 0-14.999954 6.7156783-15 14.9999173l-.000248 28.000011c-.000006 1.1045695.895419 2.0000049 1.999989 2.000011h.000011l29.500242-.000011c7.455848 0 13.500006-6.0441584 13.500006-13.5000055v-11.5000055c0-1.1045695-.895431-2-2-2z" fill="#c71d23"/><path d="m427.237362 82.434082c.875981 0 1.63346.1692692 2.272461.5078125.926762.4866561 1.493814 1.3393494 1.701172 2.5581055h-1.250489c-.152344-.6813185-.467608-1.1774887-.9458-1.4885254-.478193-.3110367-1.081214-.4665527-1.809082-.4665527-.863286 0-1.590085.3237272-2.18042.9711914s-.885498 1.6122983-.885498 2.8945312c0 1.1087295.243324 2.0111456.72998 2.7072754s1.280105 1.0441895 2.380371 1.0441895c.842127 0 1.539304-.2443823 2.091553-.7331543s.834717-1.2790473.847412-2.3708496h-2.919922v-1.0473633h4.094238v4.9892578h-.8125l-.304687-1.199707c-.427411.4697289-.806151.795572-1.13623.977539-.554365.3131526-1.258948.4697266-2.11377.4697266-1.104498 0-2.054521-.3575811-2.850098-1.0727539-.867517-.8971399-1.301269-2.1285729-1.301269-3.6943359 0-1.5615313.423173-2.8035436 1.269531-3.7260743.804041-.8802127 1.845046-1.3203125 3.123047-1.3203125zm15.546699.241211h1.275879v9.324707h-1.275879zm19.291817 0v1.1108398h-3.14209v8.2138672h-1.282226v-8.2138672h-3.14209v-1.1108398zm10.455879 0h6.79834v1.1425781h-5.566894v2.8310547h5.147949v1.0791015h-5.147949v3.1611329h5.662109v1.1108398h-6.893555zm17.850899 0h6.79834v1.1425781h-5.566895v2.8310547h5.14795v1.0791015h-5.14795v3.1611329h5.66211v1.1108398h-6.893555zm17.850899 7.9409179h1.32666v1.3837891h-1.32666zm16.60041-8.1948242c1.18067 0 2.096839.3110321 2.748535.9331055s1.013509 1.3287721 1.08545 2.1201172h-1.231446c-.139649-.6009145-.417885-1.0769839-.834716-1.4282227-.416832-.3512387-1.001868-.5268555-1.755127-.5268555-.918299 0-1.65991.3226693-2.224854.9680176s-.847412 1.6345148-.847412 2.9675293c0 1.0918024.254962 1.9772916.764893 2.6564942s1.270584 1.0187988 2.281982 1.0187988c.930994 0 1.639809-.3575811 2.126465-1.0727539.258139-.3766295.450683-.8717417.577637-1.4853516h1.231445c-.110027.9817758-.473955 1.804847-1.091797 2.4692383-.740564.7998087-1.739252 1.199707-2.996094 1.199707-1.083339 0-1.99316-.3279589-2.729492-.9838867-.96908-.8675173-1.453613-2.2068594-1.453613-4.0180664 0-1.3753324.363928-2.503088 1.091797-3.3833008.787113-.956385 1.872551-1.4345703 3.256347-1.4345703zm18.663399 0c1.646167 0 2.864905.5289661 3.65625 1.5869141.617842.8251994.926758 1.8810157.926758 3.1674804 0 1.3922596-.353349 2.5496374-1.060059 3.472168-.829431 1.0833388-2.012199 1.625-3.54834 1.625-1.434577 0-2.562333-.4739536-3.3833-1.421875-.7321-.9140671-1.098145-2.0693289-1.098145-3.4658203 0-1.261074.313148-2.3401648.939453-3.2373047.804041-1.1510474 1.993156-1.7265625 3.567383-1.7265625zm.126953 8.7216797c1.112961 0 1.918048-.3988404 2.415283-1.1965332.497236-.7976928.74585-1.7149199.74585-2.751709 0-1.0960341-.2867-1.9783495-.860107-2.6469726-.573408-.6686232-1.357336-1.0029297-2.351807-1.0029297-.964849 0-1.75195.3311327-2.361328.9934082-.609378.6622754-.914063 1.6387468-.914063 2.9294433 0 1.0325573.26131 1.9032354.783936 2.6120606.522626.7088251 1.37003 1.0632324 2.542236 1.0632324zm15.108711-8.4677734h1.809082l2.678711 7.883789 2.659668-7.883789h1.790039v9.324707h-1.199707v-5.503418c0-.1904306.004232-.5056944.012696-.9458008.008463-.4401063.012695-.911944.012695-1.4155273l-2.659668 7.8647461h-1.250488l-2.678711-7.8647461v.2856445c0 .2285168.005289.5765765.015869 1.0441895.010579.467613.015869.8114409.015869 1.0314941v5.503418h-1.206055z" fill="#2d3131"/></g></svg>